    <svg
        version="1.1"
        id="Layer_1"
        xmlns="http://www.w3.org/2000/svg"
        xmlns:xlink="http://www.w3.org/1999/xlink"
        x="0px"
        y="0px"
        width="58px"
        height="58px"
        viewBox="0 0 600 600"
        enable-background="new 0 0 600 600"
        xml:space="preserve"
    >
        <path
            id="color_x5F_2_21_"
            fill="#FFCB05"
            d="M300,271.81c-15.154,27.499-26.154,42.776-26.154,42.776    s111.465-31.165,169.699-71.496c58.233-40.331,85.732-72.718,85.732-91.051c0-9.27-11.213-41.523-109.994-57.05    c-48.279-7.589-83.107,4.937-83.107,16.719c0,6.718,4.499,15.688,8.056,24.894c60.424,0.231,103.065,7.93,141.025,25.501l6.95,3.22    l-4.881,5.905c-2.341,2.833-58.762,69.97-180.762,122.441c0,0,122.399-68.387,166.34-124.112    c-33.761-14.195-72.294-20.727-125.052-21.14c0.522,2.706,0.758,5.358,0.546,7.898C347.176,170.982,315.154,244.311,300,271.81z     M334.046,258.544c-7.925-1.055-13.793-7.975-13.61-16.006c0.057-2.506,3.728-2.472,3.868,0c0.328,5.803,4.862,10.146,10.378,11.308    C337.301,254.398,336.711,258.899,334.046,258.544z M335.179,251.545c-4.881,0-8.838-3.957-8.838-8.838s3.957-8.838,8.838-8.838    s8.838,3.957,8.838,8.838S340.06,251.545,335.179,251.545z M343.853,224.705c-1.257-4.625-1.612-9.307-1.005-14.066    c0.267-2.095,3.582-2.14,3.337,0c-0.512,4.466-0.179,8.804,1.057,13.132C347.864,225.952,344.445,226.884,343.853,224.705z     M418.532,172.407c6.324,0,11.45,5.126,11.45,11.45c0,6.324-5.126,11.45-11.45,11.45c-6.324,0-11.45-5.126-11.45-11.45    C407.082,177.533,412.208,172.407,418.532,172.407z M397.877,179.214c0.789-2.648,4.377-1.469,4.015,1.107    c-1.166,8.292,1.818,15.425,7.921,20.964c2.742,2.489-1.219,6.2-3.988,3.988C398.222,199.198,395.124,188.452,397.877,179.214z     M370.631,169.996c4.271,0,7.733,3.462,7.733,7.733c0,4.271-3.462,7.733-7.733,7.733s-7.733-3.462-7.733-7.733    C362.898,173.459,366.36,169.996,370.631,169.996z M367.517,198.92c9.651,0,17.475,7.824,17.475,17.475s-7.824,17.475-17.475,17.475    c-9.651,0-17.475-7.824-17.475-17.475S357.866,198.92,367.517,198.92z M119.243,368.36c0,84.329,103.205,114.352,171.849,114.352    c48.362,0,190.521-36.745,190.521-146.128c0-34.831-14.055-56.219-26.887-68.441c0,0-106.939,64.163-163.158,74.552    c-56.219,10.388-53.775-23.221-37.887-49.497c15.888-26.276,37.276-72.107,37.276-72.107    C267.124,227.201,119.243,284.031,119.243,368.36z M180.762,393.4c-6.557,0-11.872-5.315-11.872-11.872    c0-6.557,5.315-11.872,11.872-11.872c6.557,0,11.872,5.315,11.872,11.872C192.634,388.084,187.319,393.4,180.762,393.4z     M438.311,304.715c5.928,0,10.734,4.806,10.734,10.734s-4.806,10.734-10.734,10.734c-5.928,0-10.734-4.806-10.734-10.734    S432.382,304.715,438.311,304.715z M417.838,370.458c6.418,14.452-6.696,34.302-29.29,44.335s-46.113,6.451-52.531-8.001    c-6.418-14.452,6.696-34.302,29.29-44.335S411.42,356.006,417.838,370.458z M343.927,361.215c2.308-2.078,5.723,1.3,3.424,3.424    c-10.654,9.846-15.697,22.076-16.907,36.37c-0.267,3.159-4.965,3.255-4.99,0C325.335,385.713,332.697,371.324,343.927,361.215z     M272.688,442.429c1.427-13.554,16.408-11.414,16.408-11.414v7.134h4.226l1.286-10.67c0.541-4.487,4.546-7.734,9.048-7.334    c5.182,0.46,8.693,5.488,7.339,10.512l-3.113,11.552h2.854l3.329-7.627c5.469,2.616,14.981,9.218,12.603,18.163    c-3.464,13.03-22.59,12.988-30.2,11.561C288.858,462.879,271.261,455.983,272.688,442.429z M235.535,387.389    c4.586-10.756,14.615-16.784,22.4-13.464c7.785,3.32,10.378,14.73,5.792,25.486c-4.586,10.756-14.615,16.784-22.4,13.464    C233.542,409.555,230.948,398.145,235.535,387.389z M195.279,287.56c14.812-6.578,30.231-4.229,34.439,5.245    c4.207,9.475-4.39,22.488-19.202,29.065c-14.812,6.578-30.231,4.229-34.439-5.245C171.869,307.151,180.466,294.138,195.279,287.56z     M169.068,313.364c6.138,13.458,19.936,15.799,33.259,14.883c3.172-0.218,3.006,4.466,0,4.842    c-14.791,1.851-30.545-3.766-35.984-18.576C165.76,312.926,168.374,311.841,169.068,313.364z"
        ></path>
        <path
            id="color_x5F_1_23_"
            fill="#DE761C"
            d="M518.537,100.972C481.226,78.983,395.309,63.733,348.22,77.29    c-23.375,6.727-31.11,19.1-33.481,28.291c-3.612,14.007,2.867,29.218,11.506,39.239c-5.458,31.257-34.895,106.46-72.167,161.731    c-4.588,6.805-4.422,15.497,0.427,22.141c3.772,5.177,9.569,8.055,15.679,8.055c1.836,0,3.702-0.263,5.548-0.798    c63.384-18.413,131.943-48.162,183.392-79.576c42.563-25.989,93.299-65.131,93.299-104.005    C552.424,124.192,533.084,109.539,518.537,100.972z M451.738,244.276c-50.439,30.801-117.712,59.982-179.96,78.063    c-3.352,0.96-5.303-1.287-5.822-1.998c-0.639-0.872-1.926-3.197-0.127-5.864c38.378-56.917,67.829-132.109,74.156-166.08    c56.84-0.194,97.498,6.269,132.918,21.161c-43.941,55.724-166.34,124.112-166.34,124.112    c122.001-52.471,178.421-119.609,180.762-122.441l4.881-5.905l-6.95-3.22c-39.259-18.172-83.522-25.786-147.288-25.5    c-6.589-7.062-11.841-18.429-9.507-27.479c2.108-8.171,10.076-14.298,23.68-18.215c10.662-3.068,23.979-4.434,38.475-4.434    c42.628,0,95.428,11.797,120.725,26.704c18.861,11.114,26.909,22.833,26.909,39.188    C538.251,177.572,507.526,210.213,451.738,244.276z M278.273,204.519c-66.136,7.072-203.128,57.467-203.128,162.492    c0,84.677,110.277,129.969,194.297,128c86.622-2.03,185.145-28.977,213.333-120.123c15.097-48.817-3.282-100.43-15.097-114.871    c27.569,15.754,60.388,50.725,60.39,97.331c0.001,36.596-12.636,83.383-65.973,118.98c-41.713,27.839-96.281,51.504-193.308,51.504    c-111.589,0-221.21-65.643-221.21-162.802C47.576,247.885,207.298,189.814,278.273,204.519z M124.225,326.537    c-22.35,44.633-5.646,93.14,33.068,126.208c-21.776-8.065-65.329-39.52-65.329-87.691c0-104.168,145.177-146.948,190.343-146.204    C206.023,240.936,147.648,279.762,124.225,326.537z M334.046,258.544c-7.925-1.055-13.793-7.975-13.61-16.006    c0.057-2.506,3.728-2.472,3.868,0c0.328,5.803,4.862,10.146,10.378,11.308C337.301,254.398,336.711,258.899,334.046,258.544z     M438.311,304.715c-5.928,0-10.734,4.806-10.734,10.734s4.806,10.734,10.734,10.734s10.734-4.806,10.734-10.734    S444.239,304.715,438.311,304.715z M192.634,381.528c0,6.557-5.315,11.872-11.872,11.872c-6.557,0-11.872-5.315-11.872-11.872    s5.315-11.872,11.872-11.872C187.319,369.655,192.634,374.971,192.634,381.528z M378.364,177.729c0,4.271-3.462,7.733-7.733,7.733    c-4.271,0-7.733-3.462-7.733-7.733s3.462-7.733,7.733-7.733C374.902,169.996,378.364,173.459,378.364,177.729z M417.838,370.458    c6.418,14.452-6.696,34.302-29.29,44.335s-46.113,6.451-52.531-8.001c-6.418-14.452,6.696-34.302,29.29-44.335    S411.42,356.006,417.838,370.458z M195.279,287.56c-14.812,6.578-23.41,19.591-19.202,29.065    c4.207,9.475,19.626,11.823,34.438,5.245c14.812-6.578,23.41-19.591,19.202-29.065C225.51,283.331,210.091,280.982,195.279,287.56z     M257.935,373.925c-7.785-3.32-17.814,2.709-22.4,13.464c-4.586,10.756-1.993,22.166,5.792,25.486    c7.785,3.32,17.814-2.709,22.4-13.465C268.313,388.655,265.72,377.244,257.935,373.925z M314.064,434.582l-3.329,7.627h-2.854    l3.113-11.552c1.354-5.024-2.157-10.051-7.339-10.512h0c-4.502-0.4-8.507,2.847-9.048,7.334l-1.286,10.67h-4.226v-7.134    c0,0-14.981-2.14-16.408,11.414s16.17,20.45,23.779,21.877s26.736,1.469,30.2-11.561    C329.045,443.799,319.533,437.197,314.064,434.582z M418.532,172.407c-6.324,0-11.45,5.126-11.45,11.45    c0,6.324,5.126,11.45,11.45,11.45s11.45-5.126,11.45-11.45C429.982,177.533,424.856,172.407,418.532,172.407z M367.517,198.92    c-9.651,0-17.475,7.824-17.475,17.475s7.824,17.475,17.475,17.475c9.651,0,17.475-7.824,17.475-17.475    S377.168,198.92,367.517,198.92z M344.017,242.707c0,4.881-3.957,8.838-8.838,8.838s-8.838-3.957-8.838-8.838    s3.957-8.838,8.838-8.838S344.017,237.826,344.017,242.707z M405.826,205.272c-7.603-6.074-10.702-16.821-7.948-26.059    c0.79-2.648,4.377-1.469,4.015,1.107c-1.166,8.292,1.818,15.425,7.921,20.964C412.556,203.773,408.595,207.485,405.826,205.272z     M343.853,224.705c-1.257-4.625-1.612-9.307-1.005-14.066c0.267-2.095,3.582-2.14,3.337,0c-0.512,4.466-0.179,8.804,1.057,13.132    C347.864,225.952,344.445,226.884,343.853,224.705z M202.327,333.089c-14.791,1.851-30.545-3.766-35.984-18.576    c-0.583-1.588,2.031-2.672,2.725-1.149c6.138,13.458,19.936,15.799,33.259,14.883C205.5,328.029,205.334,332.713,202.327,333.089z     M347.351,364.639c-10.654,9.846-15.697,22.076-16.907,36.37c-0.267,3.159-4.965,3.255-4.99,0    c-0.12-15.296,7.242-29.685,18.473-39.794C346.236,359.138,349.65,362.515,347.351,364.639z"
        ></path>
    </svg>